<svg xmlns="http://www.w3.org/2000/svg" width="130" height="60" viewBox="0 0 130 60">
    <g fill="none" fill-rule="evenodd">
        <path fill="#1F2D57" d="M14.54.6v24.45c0 6.8-4.02 10.15-10.421 10.15-1.787 0-3.127-.25-4.119-.6v-7.2c.744.05 1.29.1 1.935.1 2.928 0 4.07-1 4.07-3.3V.6h8.534zM31.112 0C38.557 0 44.66 5.65 44.66 13.1c0 7.45-6.103 13.1-13.547 13.1-7.493 0-13.497-5.65-13.497-13.1C17.616 5.65 23.62 0 31.113 0zm.05 7.9c-2.878 0-4.814 2.15-4.814 5.2 0 3.1 1.936 5.2 4.814 5.2 2.68 0 4.764-2.1 4.764-5.2 0-3.05-2.085-5.2-4.764-5.2zM62.623 0c6.947 0 11.91 5.4 11.91 13.05S69.57 26.2 62.623 26.2c-2.68 0-4.813-.85-6.351-2.3v10.7h-8.535V.6h7.79v2.6c1.539-2.1 3.92-3.2 7.096-3.2zm-1.687 18.4c2.481 0 4.863-1.8 4.863-5.3s-2.332-5.3-4.863-5.3c-2.382 0-4.813 1.6-4.813 5.25 0 3.6 2.382 5.35 4.813 5.35zM107.531 0c5.955 0 9.578 4.05 9.578 10.2v15.4h-8.535V11.45c0-2.35-1.49-3.7-3.524-3.7s-3.424 1.35-3.424 3.7V25.6h-8.535V11.45c0-2.35-1.488-3.7-3.523-3.7-2.034 0-3.424 1.35-3.424 3.7V25.6H77.61V.6h7.79v1.95C87.038 1 89.32 0 92.2 0c3.125 0 5.557 1.15 7.194 3.2 1.936-2 4.863-3.2 8.138-3.2zm22.231.6v25h-8.535V.6h8.535z"/>
        <path fill="#88CFE1" fill-rule="nonzero" d="M26.561 35.078v-4.342h8.75v4.342c0 8.907 7.275 16.127 16.25 16.127h4.375v8.684h-4.375c-13.807 0-25-11.108-25-24.811z"/>
    </g>
</svg>
